<svg width="184" height="44" viewBox="0 0 184 44" fill="none" xmlns="http://www.w3.org/2000/svg">
<path d="M65.9078 24.1868C65.7812 24.0596 65.6312 23.958 65.4663 23.8873C65.3064 23.8163 65.1336 23.7792 64.9587 23.7782C64.7777 23.7758 64.5984 23.8131 64.4334 23.8873C64.2707 23.9581 64.1233 24.0598 63.9994 24.1868C63.872 24.3132 63.7703 24.4632 63.7 24.6283C63.6281 24.7928 63.5909 24.9704 63.5909 25.1499C63.5909 25.3294 63.6281 25.5069 63.7 25.6714C63.7729 25.8328 63.8744 25.9798 63.9994 26.1053C64.1247 26.2307 64.2717 26.3322 64.4334 26.4048C64.5989 26.4773 64.778 26.5137 64.9587 26.5114C65.1333 26.51 65.3059 26.4737 65.4663 26.4048C65.6302 26.3323 65.7798 26.2308 65.9078 26.1053C66.0321 25.9792 66.1335 25.8323 66.2073 25.6714C66.2792 25.5069 66.3163 25.3294 66.3163 25.1499C66.3163 24.9704 66.2792 24.7928 66.2073 24.6283C66.136 24.4637 66.0345 24.3139 65.9078 24.1868V24.1868Z" fill="#414042"/>
<path d="M62.6211 24.1869C62.4953 24.0587 62.3452 23.9569 62.1795 23.8875C62.0155 23.8155 61.8383 23.7783 61.6592 23.7783C61.4801 23.7783 61.303 23.8155 61.139 23.8875C60.9763 23.9583 60.8289 24.06 60.705 24.1869C60.5768 24.3133 60.4743 24.4632 60.403 24.6285C60.3327 24.7934 60.2965 24.9708 60.2965 25.15C60.2965 25.3293 60.3327 25.5067 60.403 25.6715C60.4769 25.8331 60.5792 25.9801 60.705 26.1055C60.8303 26.2309 60.9774 26.3323 61.139 26.405C61.3045 26.4775 61.4836 26.5138 61.6643 26.5116C61.8898 26.515 62.1125 26.4622 62.3124 26.3578C62.5123 26.2534 62.683 26.1008 62.809 25.9138C62.935 25.7268 63.0123 25.5114 63.034 25.2869C63.0557 25.0625 63.0211 24.8362 62.9332 24.6285C62.8589 24.4624 62.7529 24.3124 62.6211 24.1869V24.1869Z" fill="#414042"/>
<path d="M78.6474 10.965C78.7722 11.0898 78.9183 11.1912 79.0788 11.2645C79.2444 11.3371 79.4233 11.3742 79.6041 11.3736C79.7789 11.3712 79.9514 11.3341 80.1117 11.2645C80.2763 11.1932 80.4261 11.0916 80.5532 10.965C80.6807 10.8441 80.7855 10.7014 80.8628 10.5437C80.9363 10.3784 80.9735 10.1993 80.972 10.0184C80.971 9.84351 80.9338 9.67071 80.8628 9.51085C80.7197 9.17816 80.4545 8.91298 80.1218 8.76982C79.962 8.69885 79.7892 8.66169 79.6143 8.66069C79.4334 8.6592 79.2543 8.69641 79.0889 8.76982C78.9279 8.84223 78.7817 8.94375 78.6575 9.06928C78.5293 9.19562 78.4268 9.34556 78.3555 9.51085C78.2858 9.67112 78.2487 9.84366 78.2464 10.0184C78.2425 10.1985 78.2762 10.3774 78.3454 10.5437C78.4205 10.7008 78.5228 10.8434 78.6474 10.965Z" fill="#414042"/>
<path d="M82.2969 13.4469C81.9218 13.0778 81.4811 12.7817 80.9976 12.5739C80.4955 12.3563 79.9536 12.2457 79.4064 12.2491C78.8535 12.2467 78.306 12.3573 77.7974 12.5739C76.8072 12.9884 76.0171 13.7721 75.5946 14.759C75.3729 15.2818 75.262 15.8449 75.269 16.4128C75.276 16.9807 75.4007 17.5409 75.6352 18.0581H74.2699C73.9514 18.0712 73.6403 17.9602 73.402 17.7485C73.1206 17.4581 72.8899 17.1227 72.7193 16.7562L72.0011 15.4391C71.8483 15.1425 71.6727 14.8583 71.4758 14.5889C71.2848 14.3249 71.0575 14.0891 70.8007 13.8885C70.5293 13.6741 70.2228 13.5084 69.8947 13.3987C69.4982 13.2751 69.0843 13.216 68.669 13.2236C68.2049 13.2133 67.7434 13.2953 67.3113 13.4647C66.9588 13.6056 66.6379 13.8152 66.3672 14.0814C66.1329 14.3221 65.9514 14.6091 65.8343 14.9239C65.72 15.2221 65.6607 15.5385 65.6592 15.8578C65.6616 16.2278 65.7484 16.5924 65.9129 16.9237L67.0626 19.294C67.1184 19.4158 67.1666 19.5224 67.2047 19.6188C67.2411 19.6986 67.2609 19.785 67.2631 19.8726C67.2631 20.2634 66.8291 20.4563 65.9637 20.4563H61.52C61.0765 20.4679 60.634 20.4062 60.2105 20.2736C59.8994 20.1746 59.6148 20.0062 59.3781 19.7813C59.1735 19.5777 59.0241 19.3252 58.9442 19.0478C58.8593 18.7526 58.8174 18.4466 58.8198 18.1393V16.8222C58.8218 16.6673 58.7922 16.5136 58.7328 16.3705C58.6735 16.2274 58.5857 16.0979 58.4747 15.9898C58.3664 15.8781 58.2366 15.7894 58.0931 15.7292C57.9496 15.6691 57.7954 15.6385 57.6398 15.6396C57.4817 15.6375 57.3249 15.6675 57.1788 15.7277C57.0327 15.7879 56.9003 15.877 56.7896 15.9898C56.6783 16.0982 56.5903 16.2281 56.531 16.3717C56.4716 16.5152 56.4422 16.6694 56.4445 16.8247V18.1418C56.4469 18.6796 56.5325 19.2138 56.6982 19.7254C56.8752 20.278 57.1676 20.7867 57.556 21.2176C57.9947 21.6957 58.5291 22.0762 59.1244 22.3343C59.8724 22.6511 60.6801 22.8026 61.4921 22.7784H66.2657C66.7013 22.7795 67.1353 22.7258 67.5574 22.6185C67.9479 22.5227 68.3218 22.3687 68.6664 22.1617C68.9772 21.9718 69.2445 21.7184 69.4506 21.4181C69.6513 21.118 69.7557 20.764 69.7501 20.403C69.7486 20.1343 69.7067 19.8674 69.6257 19.6112C69.5386 19.3307 69.4238 19.0595 69.2831 18.8017L68.6487 17.5861C68.5962 17.4846 68.5379 17.3704 68.4736 17.2435L68.2909 16.8603C68.2345 16.7403 68.1845 16.6175 68.1411 16.4923C68.1059 16.3936 68.0862 16.29 68.0828 16.1852C68.0847 16.103 68.1035 16.0221 68.138 15.9475C68.1725 15.8728 68.2219 15.806 68.2832 15.7512C68.3566 15.6821 68.4432 15.6287 68.5379 15.5943C68.6326 15.5598 68.7333 15.545 68.8339 15.5508C68.9729 15.5509 69.1104 15.5796 69.2379 15.635C69.3654 15.6904 69.4801 15.7715 69.575 15.8731C69.8551 16.1883 70.0884 16.5421 70.2678 16.9237L70.8845 18.0251C71.2053 18.6837 71.6559 19.2707 72.2092 19.7508C72.7315 20.1662 73.3846 20.3821 74.0516 20.3599H79.4064C79.9521 20.3634 80.493 20.2582 80.9976 20.0503C81.4793 19.8539 81.9201 19.569 82.2969 19.2103C82.8772 18.6426 83.2723 17.9128 83.4304 17.1166C83.5884 16.3204 83.5021 15.4951 83.1826 14.7488C82.9712 14.2634 82.6708 13.8218 82.2969 13.4469ZM80.9899 17.0176C80.903 17.2193 80.7751 17.4008 80.6144 17.5505C80.4471 17.7006 80.2546 17.8201 80.0459 17.9033C79.8346 17.9921 79.6077 18.0378 79.3785 18.0378C79.1492 18.0378 78.9223 17.9921 78.711 17.9033C78.5052 17.8181 78.3161 17.6969 78.1527 17.5455C77.9912 17.3964 77.8632 17.2147 77.7771 17.0125C77.6874 16.8042 77.6416 16.5796 77.6426 16.3527C77.6426 16.121 77.6883 15.8916 77.7771 15.6777C77.8678 15.4658 77.9988 15.2736 78.1629 15.1117C78.3226 14.9454 78.5119 14.8102 78.7212 14.7133C78.9294 14.613 79.1575 14.5609 79.3886 14.5609C79.6197 14.5609 79.8478 14.613 80.056 14.7133C80.2649 14.8109 80.4541 14.9459 80.6144 15.1117C80.775 15.2782 80.9024 15.4737 80.9899 15.6878C81.0779 15.9019 81.1228 16.1313 81.1219 16.3629C81.1231 16.5878 81.0782 16.8107 80.9899 17.0176Z" fill="#414042"/>
<path d="M112.061 8.2774C112.187 8.40321 112.334 8.5055 112.495 8.57939C112.661 8.65199 112.84 8.68916 113.02 8.68852C113.195 8.68617 113.368 8.64908 113.528 8.57939C113.693 8.50814 113.843 8.40559 113.97 8.2774C114.095 8.15325 114.197 8.00699 114.269 7.84597C114.342 7.68064 114.38 7.50153 114.378 7.32064C114.377 7.14575 114.34 6.97294 114.269 6.81309C114.126 6.4804 113.861 6.21521 113.528 6.07206C113.368 6.00109 113.195 5.96394 113.02 5.96293C112.84 5.96145 112.66 5.99865 112.495 6.07206C112.334 6.14504 112.187 6.24647 112.061 6.37151C111.935 6.49864 111.833 6.64843 111.762 6.81309C111.693 6.97349 111.656 7.14605 111.655 7.32064C111.654 7.50126 111.69 7.68019 111.762 7.84597C111.835 8.00648 111.936 8.1526 112.061 8.2774V8.2774Z" fill="#414042"/>
<path d="M110.428 10.9803C110.553 11.1064 110.7 11.208 110.862 11.2797C111.027 11.3538 111.205 11.391 111.385 11.3888C111.56 11.3878 111.733 11.3507 111.893 11.2797C112.058 11.2094 112.208 11.1077 112.334 10.9803C112.46 10.8557 112.562 10.7085 112.634 10.5463C112.706 10.3823 112.743 10.2051 112.743 10.026C112.743 9.84694 112.706 9.6698 112.634 9.5058C112.492 9.17171 112.226 8.90534 111.893 8.76223C111.732 8.69254 111.56 8.65544 111.385 8.6531C111.205 8.65198 111.027 8.68918 110.862 8.76223C110.701 8.83487 110.554 8.93635 110.428 9.06169C110.301 9.18942 110.198 9.34009 110.126 9.5058C110.057 9.66604 110.021 9.83871 110.02 10.0134C110.018 10.1941 110.054 10.3732 110.126 10.5387C110.198 10.7037 110.301 10.8535 110.428 10.9803Z" fill="#414042"/>
<path d="M113.713 9.06151C113.587 9.18934 113.485 9.34003 113.414 9.50562C113.342 9.66962 113.305 9.84676 113.305 10.0259C113.305 10.205 113.342 10.3821 113.414 10.5461C113.561 10.872 113.821 11.1329 114.147 11.2795C114.311 11.3515 114.489 11.3887 114.668 11.3887C114.847 11.3887 115.024 11.3515 115.188 11.2795C115.353 11.2086 115.504 11.107 115.632 10.9801C115.758 10.854 115.859 10.7061 115.931 10.5436C116.005 10.3782 116.042 10.1991 116.041 10.0183C116.039 9.84343 116.002 9.67077 115.931 9.51069C115.789 9.17584 115.523 8.90925 115.188 8.76712C115.028 8.69684 114.855 8.65972 114.68 8.658C114.499 8.65652 114.32 8.69372 114.155 8.76712C113.991 8.83744 113.841 8.93722 113.713 9.06151Z" fill="#414042"/>
<path d="M125.61 7.78774C125.451 7.78478 125.294 7.81433 125.148 7.87458C125.002 7.93482 124.87 8.02446 124.759 8.13795C124.647 8.24533 124.558 8.37462 124.498 8.5178C124.438 8.66099 124.407 8.81501 124.409 8.97035V16.4416C124.409 17.0084 124.295 17.417 124.067 17.6674C123.838 17.9211 123.447 18.0429 122.892 18.0429H121.975C121.659 18.0454 121.343 18.0114 121.034 17.9414C120.76 17.885 120.498 17.7838 120.257 17.642C120.044 17.5169 119.864 17.3429 119.732 17.1344C119.602 16.9244 119.535 16.6812 119.539 16.434V14.4038C119.537 14.0907 119.412 13.7911 119.191 13.5697C118.969 13.3484 118.67 13.2231 118.357 13.2211C118.198 13.2182 118.041 13.2477 117.895 13.308C117.749 13.3682 117.617 13.4579 117.506 13.5714C117.394 13.6787 117.305 13.808 117.245 13.9512C117.185 14.0944 117.154 14.2484 117.156 14.4038V16.434C117.173 16.6534 117.143 16.8738 117.068 17.0807C116.993 17.2876 116.875 17.4763 116.722 17.6344C116.432 17.9008 116.05 18.0446 115.656 18.0353C115.447 18.0463 115.237 18.0118 115.042 17.9341C114.847 17.8564 114.671 17.7374 114.526 17.5852C114.382 17.433 114.272 17.2514 114.204 17.0526C114.136 16.8539 114.112 16.6428 114.134 16.434V14.4038C114.13 14.0907 114.004 13.7914 113.783 13.5703C113.561 13.3491 113.262 13.2238 112.948 13.2211C112.79 13.2185 112.633 13.2482 112.487 13.3084C112.341 13.3686 112.209 13.4581 112.098 13.5714C111.986 13.6787 111.897 13.808 111.837 13.9512C111.777 14.0944 111.746 14.2484 111.748 14.4038V16.434C111.77 16.6428 111.746 16.8539 111.678 17.0526C111.61 17.2514 111.5 17.433 111.355 17.5852C111.211 17.7374 111.035 17.8564 110.84 17.9341C110.645 18.0118 110.435 18.0463 110.225 18.0353C109.832 18.0446 109.45 17.9008 109.16 17.6344C109.006 17.4763 108.889 17.2876 108.814 17.0807C108.739 16.8738 108.709 16.6534 108.726 16.434V14.4038C108.727 14.2484 108.697 14.0944 108.637 13.9512C108.577 13.808 108.488 13.6787 108.375 13.5714C108.265 13.4581 108.133 13.3686 107.987 13.3084C107.84 13.2482 107.683 13.2185 107.525 13.2211C107.212 13.2238 106.913 13.3491 106.691 13.5703C106.469 13.7914 106.343 14.0907 106.34 14.4038V16.434C106.345 16.6809 106.279 16.9242 106.15 17.1344C106.016 17.3418 105.836 17.5155 105.624 17.642C105.383 17.7829 105.121 17.8841 104.848 17.9414C104.539 18.0111 104.223 18.0451 103.906 18.0429H89.1593C88.6035 18.0429 88.2127 17.9161 87.9843 17.6674C87.7559 17.4186 87.6417 17.0075 87.6417 16.4416V8.95512C87.6433 8.79943 87.6131 8.64505 87.5528 8.50147C87.4926 8.35788 87.4037 8.22814 87.2914 8.12019C87.1813 8.00671 87.049 7.91706 86.9027 7.85681C86.7565 7.79657 86.5994 7.76702 86.4413 7.76998C86.1282 7.77329 85.829 7.89929 85.6078 8.12091C85.3867 8.34252 85.2613 8.64206 85.2587 8.95512V16.9085C85.2379 17.4868 85.3823 18.059 85.6749 18.5581C85.935 18.9869 86.288 19.352 86.7078 19.6265C87.1067 19.8873 87.5469 20.0786 88.0096 20.1924C88.4067 20.2964 88.8148 20.3526 89.2252 20.3599H104.066C104.791 20.3694 105.512 20.2464 106.193 19.997C106.773 19.7758 107.247 19.3409 107.518 18.7814C107.768 19.2622 108.142 19.6677 108.601 19.9564C109.087 20.239 109.641 20.3805 110.203 20.365C110.791 20.3902 111.374 20.2486 111.885 19.9564C112.34 19.6621 112.714 19.2581 112.971 18.7814C113.218 19.2839 113.618 19.6953 114.113 19.9564C114.596 20.2221 115.138 20.3626 115.689 20.365C116.247 20.3786 116.798 20.2372 117.28 19.9564C117.742 19.6731 118.115 19.266 118.357 18.7814C118.623 19.3382 119.091 19.7727 119.666 19.997C120.404 20.2674 121.187 20.3924 121.973 20.365H122.823C123.234 20.3579 123.643 20.3017 124.041 20.1975C124.504 20.0837 124.944 19.8924 125.343 19.6316C125.763 19.3571 126.116 18.992 126.376 18.5632C126.669 18.0643 126.815 17.4921 126.795 16.9136V8.97035C126.791 8.65729 126.665 8.35802 126.444 8.13688C126.222 7.91574 125.923 7.79039 125.61 7.78774V7.78774Z" fill="#414042"/>
<path d="M130.677 7.76994C130.519 7.76728 130.362 7.79697 130.216 7.8572C130.07 7.91743 129.938 8.00691 129.827 8.12016C129.715 8.2281 129.626 8.35785 129.566 8.50143C129.506 8.64501 129.475 8.79939 129.477 8.95508V19.893C129.468 19.9563 129.474 20.0209 129.494 20.0816C129.515 20.1423 129.549 20.1975 129.594 20.2427C129.639 20.288 129.695 20.3221 129.755 20.3425C129.816 20.3628 129.881 20.3688 129.944 20.3599H131.396C131.459 20.3688 131.524 20.3628 131.584 20.3425C131.645 20.3221 131.7 20.288 131.745 20.2427C131.791 20.1975 131.825 20.1423 131.845 20.0816C131.865 20.0209 131.871 19.9563 131.863 19.893V8.95508C131.86 8.64158 131.734 8.34168 131.512 8.11999C131.291 7.89831 130.991 7.77259 130.677 7.76994V7.76994Z" fill="#414042"/>
<path d="M157.256 22.1694C157.131 22.0418 156.981 21.9401 156.817 21.87C156.657 21.799 156.484 21.7619 156.309 21.7608C156.128 21.7585 155.949 21.7957 155.784 21.87C155.621 21.9408 155.474 22.0425 155.35 22.1694C155.223 22.2959 155.121 22.4458 155.051 22.611C154.979 22.7755 154.942 22.953 154.942 23.1325C154.942 23.312 154.979 23.4896 155.051 23.654C155.124 23.8155 155.225 23.9625 155.35 24.088C155.475 24.2133 155.622 24.3148 155.784 24.3875C155.949 24.46 156.129 24.4963 156.309 24.494C156.484 24.4926 156.656 24.4564 156.817 24.3875C156.98 24.3156 157.129 24.214 157.256 24.088C157.382 23.9626 157.484 23.8156 157.558 23.654C157.63 23.4896 157.667 23.312 157.667 23.1325C157.667 22.953 157.63 22.7755 157.558 22.611C157.487 22.4457 157.384 22.2958 157.256 22.1694V22.1694Z" fill="#414042"/>
<path d="M153.972 22.1694C153.846 22.0411 153.696 21.9393 153.53 21.8699C153.37 21.7989 153.197 21.7618 153.022 21.7608C152.842 21.7593 152.662 21.7965 152.497 21.8699C152.17 22.0186 151.909 22.2823 151.764 22.6109C151.693 22.7758 151.657 22.9532 151.657 23.1325C151.657 23.3117 151.693 23.4891 151.764 23.654C151.912 23.9785 152.173 24.2389 152.497 24.3874C152.663 24.4591 152.842 24.4954 153.022 24.494C153.383 24.4881 153.727 24.3425 153.982 24.0877C154.238 23.833 154.384 23.4892 154.39 23.1286C154.389 22.9538 154.352 22.7809 154.281 22.6211C154.21 22.4509 154.105 22.2972 153.972 22.1694V22.1694Z" fill="#414042"/>
<path d="M161.9 7.78776C161.741 7.7851 161.584 7.81479 161.438 7.87501C161.292 7.93524 161.16 8.02472 161.049 8.13797C160.937 8.24534 160.848 8.37463 160.788 8.51782C160.728 8.661 160.697 8.81503 160.699 8.97036V16.4416C160.699 17.0084 160.585 17.417 160.357 17.6674C160.131 17.9211 159.737 18.043 159.182 18.043H158.265C157.949 18.0451 157.633 18.0111 157.324 17.9414C157.051 17.8841 156.788 17.783 156.547 17.642C156.335 17.5155 156.156 17.3418 156.022 17.1344C155.892 16.9242 155.826 16.6809 155.832 16.434V14.4038C155.828 14.0907 155.702 13.7914 155.481 13.5703C155.259 13.3492 154.96 13.2238 154.647 13.2212C154.488 13.2185 154.331 13.2482 154.185 13.3084C154.039 13.3686 153.907 13.4581 153.796 13.5714C153.684 13.6788 153.595 13.808 153.535 13.9512C153.475 14.0944 153.444 14.2484 153.446 14.4038V16.434C153.452 16.6809 153.385 16.9242 153.256 17.1344C153.127 17.3393 152.953 17.5127 152.748 17.642C152.513 17.7837 152.256 17.8849 151.987 17.9414C151.366 18.0768 150.723 18.0768 150.101 17.9414C149.822 17.8817 149.557 17.7688 149.32 17.609C149.089 17.4512 148.905 17.2348 148.787 16.9822C148.649 16.6764 148.583 16.343 148.594 16.0077V8.97036C148.591 8.65731 148.465 8.35804 148.243 8.1369C148.021 7.91576 147.722 7.7904 147.409 7.78776C147.251 7.7851 147.094 7.81479 146.947 7.87501C146.801 7.93524 146.669 8.02472 146.559 8.13797C146.446 8.24534 146.357 8.37463 146.297 8.51782C146.237 8.661 146.207 8.81503 146.208 8.97036V17.6496C146.214 18.0508 146.147 18.4498 146.01 18.8271C145.888 19.158 145.701 19.4609 145.46 19.7179C145.224 19.9633 144.94 20.1569 144.625 20.2864C144.291 20.4206 143.934 20.4878 143.574 20.4843C143.206 20.4883 142.841 20.421 142.498 20.2864C142.179 20.1571 141.889 19.9636 141.648 19.7179C141.403 19.4626 141.212 19.1594 141.09 18.8271C140.951 18.4503 140.883 18.0511 140.889 17.6496V17.2994C140.883 16.9846 140.753 16.6849 140.527 16.4653C140.302 16.2458 139.999 16.1242 139.684 16.1269C139.526 16.124 139.369 16.1535 139.222 16.2138C139.076 16.274 138.944 16.3637 138.834 16.4771C138.722 16.5847 138.633 16.714 138.572 16.8572C138.512 17.0003 138.482 17.1543 138.483 17.3095V17.7105C138.473 18.4281 138.585 19.1423 138.816 19.822C139.016 20.422 139.35 20.969 139.792 21.4221C140.233 21.8751 140.772 22.2226 141.366 22.4384C142.056 22.6883 142.785 22.8095 143.518 22.7962C144.124 22.8043 144.728 22.723 145.31 22.5551C145.803 22.411 146.267 22.1854 146.685 21.8877C147.071 21.61 147.404 21.2663 147.67 20.8726C147.939 20.4749 148.146 20.0396 148.287 19.5809C148.654 19.8537 149.07 20.0544 149.513 20.1722C150.004 20.3049 150.511 20.3698 151.02 20.365V20.365C151.796 20.3919 152.57 20.2758 153.304 20.0224C153.888 19.7897 154.363 19.347 154.636 18.7815C154.904 19.3373 155.372 19.7715 155.946 19.9971C156.685 20.2672 157.469 20.3922 158.255 20.365H159.105C159.517 20.3576 159.926 20.3014 160.324 20.1975C160.785 20.0832 161.225 19.8919 161.623 19.6316C162.043 19.3565 162.397 18.9916 162.658 18.5632C162.95 18.0636 163.094 17.4918 163.075 16.9136V8.97036C163.071 8.65731 162.945 8.35804 162.724 8.1369C162.502 7.91576 162.202 7.7904 161.889 7.78776H161.9Z" fill="#414042"/>
<path d="M177.559 7.78776C177.4 7.7851 177.243 7.81479 177.097 7.87501C176.951 7.93524 176.819 8.02472 176.708 8.13797C176.596 8.24534 176.507 8.37463 176.447 8.51782C176.387 8.661 176.356 8.81503 176.358 8.97036V16.4416C176.358 17.0084 176.244 17.417 176.016 17.6674C175.787 17.9211 175.396 18.043 174.841 18.043H172.739V16.7411C172.749 16.098 172.618 15.4605 172.356 14.8733C172.109 14.3305 171.748 13.8474 171.298 13.4572C170.831 13.0592 170.293 12.7534 169.712 12.5563C169.087 12.3418 168.431 12.2345 167.77 12.239C167.615 12.2317 167.459 12.2561 167.313 12.3106C167.167 12.3652 167.034 12.4487 166.921 12.5563C166.808 12.6639 166.718 12.7933 166.657 12.9366C166.596 13.0798 166.564 13.2341 166.564 13.3899C166.564 13.5458 166.596 13.7 166.657 13.8433C166.718 13.9866 166.808 14.1159 166.921 14.2235C167.034 14.3311 167.167 14.4147 167.313 14.4692C167.459 14.5238 167.615 14.5481 167.77 14.5408C168.113 14.5382 168.455 14.5834 168.785 14.6753C169.081 14.7534 169.359 14.8888 169.603 15.0737C169.835 15.2566 170.021 15.4913 170.146 15.7589C170.285 16.0672 170.354 16.4028 170.346 16.7411V18.043H166.235C166.083 18.0401 165.932 18.0688 165.792 18.1274C165.652 18.1859 165.525 18.273 165.42 18.383C165.312 18.4912 165.226 18.6203 165.168 18.7624C165.111 18.9046 165.082 19.057 165.085 19.2103C165.084 19.3617 165.113 19.5118 165.17 19.6519C165.227 19.792 165.312 19.9192 165.419 20.0263C165.526 20.1333 165.653 20.2179 165.793 20.2752C165.933 20.3325 166.084 20.3613 166.235 20.36H174.775C175.186 20.3525 175.595 20.2963 175.993 20.1925C176.455 20.0781 176.894 19.8868 177.292 19.6265C177.712 19.352 178.065 18.9869 178.325 18.5581C178.618 18.0592 178.764 17.487 178.744 16.9086V8.97036C178.74 8.65731 178.614 8.35804 178.393 8.1369C178.171 7.91576 177.872 7.7904 177.559 7.78776V7.78776Z" fill="#414042"/>
<path d="M183.458 8.12016C183.351 8.00778 183.221 7.91868 183.078 7.85843C182.935 7.79818 182.781 7.76806 182.625 7.76994C182.467 7.76728 182.31 7.79697 182.164 7.8572C182.018 7.91743 181.886 8.00691 181.775 8.12016C181.663 8.2281 181.574 8.35785 181.514 8.50143C181.454 8.64501 181.423 8.79939 181.425 8.95508V19.893C181.416 19.9564 181.421 20.0213 181.441 20.0822C181.462 20.1432 181.496 20.1985 181.541 20.2439C181.586 20.2893 181.642 20.3235 181.703 20.3436C181.764 20.3637 181.829 20.3693 181.892 20.3599H183.334C183.397 20.3688 183.461 20.3628 183.522 20.3425C183.583 20.3221 183.638 20.288 183.683 20.2427C183.729 20.1975 183.763 20.1423 183.783 20.0816C183.803 20.0209 183.809 19.9563 183.8 19.893V8.95508C183.804 8.79988 183.775 8.64569 183.716 8.50208C183.657 8.35846 183.569 8.22848 183.458 8.12016V8.12016Z" fill="#414042"/>
<path d="M82.8379 38.9349H79.6758V30.4815H82.7211C83.2722 30.4626 83.8235 30.5163 84.3605 30.6414C84.8352 30.7805 85.2643 31.0432 85.6041 31.4027C85.967 31.7922 86.2384 32.2578 86.3984 32.7655C86.5979 33.4232 86.6912 34.1086 86.675 34.7957C86.6784 37.5551 85.3993 38.9349 82.8379 38.9349ZM82.5993 37.9197C82.9854 37.9313 83.3717 37.9016 83.7515 37.8309C84.0623 37.7593 84.3502 37.6109 84.5889 37.3995C84.8492 37.1334 85.0348 36.8034 85.1269 36.4427C85.2761 35.8801 85.3436 35.2989 85.3274 34.717C85.344 34.1507 85.2747 33.5852 85.1219 33.0396C85.0233 32.6824 84.8296 32.3587 84.5615 32.103C84.2933 31.8473 83.9607 31.6693 83.5992 31.588C82.7348 31.504 81.866 31.4752 80.998 31.5017V37.9299L82.5993 37.9197Z" fill="#999999"/>
<path d="M96.7948 38.9351H95.3838L94.5945 36.9048H90.6559L89.9174 38.9351H88.5546L91.8537 30.4817H93.417L96.7948 38.9351ZM94.2062 35.8897L92.6074 31.5882L91.0568 35.8897H94.2062Z" fill="#999999"/>
<path d="M99.0466 38.935V30.5603H100.349V37.9199H104.851V38.935H99.0466Z" fill="#999999"/>
<path d="M107.263 38.9351V30.4817H108.575V38.9351H107.263Z" fill="#999999"/>
<path d="M111.539 38.935V30.5603H112.841V37.9199H117.351V38.935H111.539Z" fill="#999999"/>
<path d="M125.661 38.9705C124.591 38.9705 123.776 38.7294 123.214 38.2472C122.656 37.773 122.304 37.1006 122.232 36.3718L123.521 36.2449C123.593 36.7196 123.832 37.1528 124.196 37.4656C124.611 37.8032 125.137 37.975 125.671 37.9478C126.204 37.9814 126.731 37.826 127.16 37.5087C127.323 37.3858 127.455 37.227 127.546 37.0448C127.637 36.8626 127.685 36.6618 127.686 36.4581C127.686 35.9167 127.347 35.5293 126.671 35.2958C126.185 35.1371 125.692 35.0033 125.194 34.8948C124.278 34.6689 123.638 34.3873 123.28 34.07C123.043 33.8734 122.853 33.6266 122.724 33.3474C122.594 33.0682 122.529 32.7637 122.532 32.456C122.531 32.048 122.653 31.6491 122.882 31.3115C123.131 30.9434 123.484 30.658 123.897 30.4917C124.42 30.287 124.979 30.1894 125.541 30.205C126.6 30.205 127.389 30.4308 127.904 30.88C128.14 31.065 128.334 31.2975 128.475 31.5624C128.615 31.8273 128.698 32.1188 128.719 32.4179L127.379 32.4941C127.23 31.6363 126.613 31.2066 125.529 31.2049C125.039 31.1811 124.555 31.3087 124.14 31.5703C124.018 31.655 123.918 31.7689 123.85 31.9018C123.782 32.0348 123.749 32.1825 123.752 32.3316C123.751 32.474 123.784 32.6147 123.847 32.7424C123.91 32.8701 124.002 32.9814 124.115 33.0676C124.367 33.2858 124.936 33.499 125.823 33.7071C126.487 33.8401 127.133 34.0496 127.749 34.3314C128.122 34.5205 128.438 34.8062 128.663 35.1587C128.888 35.5537 128.998 36.0038 128.98 36.4581C128.977 36.9327 128.834 37.3959 128.568 37.7889C128.302 38.1819 127.925 38.4872 127.485 38.666C126.903 38.8868 126.283 38.9903 125.661 38.9705Z" fill="#999999"/>
<path d="M131.697 38.9351V30.4817H133.012V34.0067H137.05V30.4817H138.364V38.9351H137.05V35.0192H133.012V38.9351H131.697Z" fill="#999999"/>
<path d="M148.794 38.9351H147.381L146.594 36.9048H142.665L141.93 38.9351H140.564L143.863 30.4817H145.427L148.794 38.9351ZM146.206 35.8897L144.604 31.5882L143.054 35.8897H146.206Z" fill="#999999"/>
<path d="M152.322 38.9351H151.02V30.4817H156.646V31.4968H152.332V34.1234H156.07V35.1385H152.322V38.9351Z" fill="#999999"/>
<path d="M159.273 38.9351V30.4817H160.588V38.9351H159.273Z" fill="#999999"/>
<path d="M56.4443 34.5622C56.4443 34.5622 61.1215 34.4252 65.8012 34.344L69.2373 34.2678C70.3362 34.2678 71.3589 34.3135 72.237 34.3465C73.9906 34.4302 75.1605 34.5622 75.1605 34.5622V34.6257C75.1605 34.6257 73.9906 34.7576 72.237 34.8414C71.3589 34.8744 70.3362 34.9175 69.2373 34.92L65.8012 34.8439C61.1266 34.7576 56.4443 34.6206 56.4443 34.6206V34.5622Z" fill="#999999"/>
<path d="M183.806 34.6208C183.806 34.6208 179.127 34.7579 174.447 34.8391L171.011 34.9152C169.914 34.9152 168.892 34.8695 168.014 34.8365C166.26 34.7528 165.09 34.6208 165.09 34.6208V34.5625C165.09 34.5625 166.26 34.4305 168.014 34.3467C168.892 34.3137 169.914 34.2681 171.011 34.2681L174.447 34.3442C179.127 34.4254 183.806 34.5625 183.806 34.5625V34.6208Z" fill="#999999"/>
<path d="M41.4769 4.99965C41.0391 4.99913 40.6091 4.88324 40.2304 4.66365C39.8424 4.4482 39.5228 4.12801 39.308 3.73964C39.089 3.3595 38.9736 2.92846 38.9736 2.48971C38.9736 2.05096 39.089 1.61992 39.308 1.23978C39.5228 0.851578 39.844 0.532763 40.2337 0.32081C40.6113 0.110429 41.0363 0 41.4685 0C41.9007 0 42.3258 0.110429 42.7033 0.32081C43.0943 0.531743 43.4162 0.850772 43.6307 1.23978C43.8513 1.62303 43.9672 2.05758 43.9667 2.49979C43.9649 2.93532 43.849 3.36277 43.6307 3.73964C43.4153 4.12808 43.0951 4.44823 42.7067 4.66365C42.3327 4.88012 41.909 4.99589 41.4769 4.99965V4.99965ZM41.4769 4.51245C41.8305 4.51335 42.1782 4.42123 42.4849 4.24533C42.7978 4.07164 43.0552 3.81306 43.2275 3.4994C43.4044 3.19293 43.4976 2.84528 43.4976 2.49139C43.4976 2.13751 43.4044 1.78985 43.2275 1.48338C43.0533 1.17099 42.7933 0.915051 42.4782 0.745854C42.176 0.577247 41.8356 0.488738 41.4895 0.488738C41.1434 0.488738 40.8031 0.577247 40.5008 0.745854C40.1868 0.914747 39.9283 1.17089 39.7566 1.48338C39.5813 1.7904 39.4891 2.13784 39.4891 2.49139C39.4891 2.84494 39.5813 3.19238 39.7566 3.4994C39.9273 3.81367 40.1844 4.07251 40.4975 4.24533C40.7958 4.41646 41.133 4.50842 41.4769 4.51245V4.51245ZM42.6529 3.84044H41.991L41.7709 3.407C41.6843 3.20267 41.5594 3.01677 41.403 2.85931C41.2938 2.78192 41.1621 2.74293 41.0284 2.74843H40.8889V3.83708H40.3547V1.18434C41.2182 1.18434 41.6785 1.18434 41.7373 1.18434C41.8825 1.18946 42.025 1.22494 42.1557 1.2885C42.2598 1.34873 42.3452 1.43651 42.4026 1.54218C42.4675 1.65991 42.5005 1.79252 42.4984 1.92691C42.5021 2.10841 42.4353 2.28429 42.3119 2.41747C42.1734 2.55987 41.9888 2.64857 41.7911 2.66779C41.857 2.69164 41.9188 2.72565 41.9742 2.76859C42.0393 2.82992 42.0989 2.89682 42.1523 2.96852C42.1736 3.00548 42.3405 3.295 42.6529 3.83708V3.84044ZM41.1023 2.32843C41.2957 2.33836 41.4896 2.32596 41.6802 2.29147C41.7507 2.26963 41.8128 2.22685 41.8583 2.16883C41.9024 2.10908 41.9254 2.03641 41.9238 1.96219C41.9277 1.88902 41.9058 1.8168 41.8619 1.75815C41.818 1.69949 41.7549 1.65814 41.6836 1.6413C41.4178 1.6079 41.1498 1.59666 40.8822 1.6077V2.32843H41.1023Z" fill="#414042"/>
<path d="M21.9048 43.2066C33.669 43.2066 43.2057 33.6698 43.2057 21.9057C43.2057 10.1415 33.669 0.604736 21.9048 0.604736C10.1406 0.604736 0.603882 10.1415 0.603882 21.9057C0.603882 33.6698 10.1406 43.2066 21.9048 43.2066Z" fill="url(#paint0_linear_2_46)"/>
<path d="M1.20541 21.9041C1.20442 17.8099 2.41757 13.8074 4.69145 10.4027C6.96533 6.99802 10.1978 4.34413 13.98 2.77666C17.7623 1.20919 21.9244 0.798556 25.9401 1.59668C29.9557 2.3948 33.6445 4.36584 36.5398 7.26051C39.4352 10.1552 41.4072 13.8435 42.2063 17.8589C43.0054 21.8744 42.5957 26.0366 41.0292 29.8192C39.4626 33.6018 36.8095 36.835 33.4054 39.1097C30.0013 41.3844 25.9991 42.5985 21.9049 42.5985C16.4178 42.5923 11.1572 40.4101 7.2768 36.5307C3.39639 32.6512 1.21297 27.3911 1.20541 21.9041V21.9041ZM0.000840076 21.9041C-0.0244927 24.7966 0.523344 27.6655 1.61273 30.3451C2.70211 33.0248 4.31146 35.4621 6.34787 37.5164C8.38429 39.5708 10.8074 41.2014 13.4774 42.3142C16.1474 43.427 19.0114 43.9999 21.904 43.9999C24.7967 43.9999 27.6606 43.427 30.3306 42.3142C33.0007 41.2014 35.4238 39.5708 37.4602 37.5164C39.4966 35.4621 41.106 33.0248 42.1954 30.3451C43.2848 27.6655 43.8326 24.7966 43.8073 21.9041C43.8073 9.82812 33.9825 0.00170898 21.9049 0.00170898C9.82725 0.00170898 0.000840076 9.82812 0.000840076 21.9041Z" fill="url(#paint1_linear_2_46)"/>
<path d="M21.9052 41.2511C32.5894 41.2511 41.2506 32.5898 41.2506 21.9057C41.2506 11.2215 32.5894 2.5603 21.9052 2.5603C11.221 2.5603 2.55981 11.2215 2.55981 21.9057C2.55981 32.5898 11.221 41.2511 21.9052 41.2511Z" fill="url(#paint2_linear_2_46)"/>
<path d="M20.1375 3.92943C19.5663 3.98487 19.0052 4.06887 18.4575 4.17639C21.2482 4.19969 23.9767 5.00292 26.3349 6.49533C28.6931 7.98775 30.5869 10.1099 31.8024 12.622C33.018 15.1341 33.5068 17.9361 33.2137 20.7114C32.9206 23.4867 31.8573 26.1248 30.1438 28.3275C28.4303 30.5303 26.1349 32.21 23.517 33.1769C20.8991 34.1438 18.063 34.3593 15.329 33.7991C12.5951 33.239 10.0722 31.9254 8.04553 30.0069C6.01882 28.0884 4.56901 25.6413 3.85986 22.9422C3.8733 23.1807 3.88842 23.4193 3.91194 23.6579C4.25147 27.1373 5.59356 30.4435 7.77537 33.1751C9.95718 35.9067 12.8849 37.9463 16.2033 39.0465C19.5216 40.1467 23.088 40.2601 26.4695 39.3729C29.8511 38.4858 32.9025 36.6363 35.2535 34.0489C37.6044 31.4614 39.1539 28.2472 39.7138 24.7964C40.2737 21.3455 39.82 17.8063 38.4078 14.6083C36.9955 11.4102 34.6854 8.69082 31.7578 6.78003C28.8302 4.86924 25.411 3.84922 21.915 3.84375C21.3303 3.84375 20.739 3.87063 20.1443 3.92943" fill="url(#paint3_linear_2_46)"/>
<path d="M13.0327 7.10815C12.5732 7.10815 12.1325 7.29059 11.8074 7.61537C11.4823 7.94015 11.2994 8.38072 11.299 8.84025V15.4528C11.299 18.7523 19.0707 17.6939 19.8939 21.8251C19.9424 22.0696 19.9661 22.3184 19.9645 22.5677V25.511C19.9645 25.9851 19.7761 26.4398 19.4409 26.775C19.1057 27.1103 18.651 27.2986 18.1769 27.2986C17.7029 27.2986 17.2482 27.1103 16.913 26.775C16.5777 26.4398 16.3894 25.9851 16.3894 25.511V22.5677C16.3894 19.1572 11.299 19.7116 11.299 17.5663V29.0324C11.299 29.4922 11.4816 29.9332 11.8068 30.2583C12.1319 30.5835 12.5729 30.7661 13.0327 30.7661H18.5549C21.0278 30.7653 23.4384 29.9902 25.4484 28.5497C27.4584 27.1091 28.9669 25.0755 29.7623 22.734C30.9887 17.7662 18.7515 19.1774 16.6784 14.9085C16.4784 14.4931 16.3772 14.0372 16.3827 13.5762V12.3582C16.3827 11.8841 16.571 11.4295 16.9062 11.0942C17.2415 10.759 17.6961 10.5707 18.1702 10.5707C18.6443 10.5707 19.099 10.759 19.4342 11.0942C19.7694 11.4295 19.9578 11.8841 19.9578 12.3582V13.5695C19.9578 18.3004 30.4696 16.061 30.3268 20.093C30.3654 19.7078 30.3844 19.3209 30.3839 18.9338C30.383 15.7971 29.1364 12.7892 26.9181 10.5716C24.6998 8.35396 21.6916 7.10815 18.5549 7.10815H13.0327Z" fill="url(#paint4_linear_2_46)"/>
<path d="M23.5618 8.2151C22.8961 7.90259 22.1704 7.73863 21.4349 7.73462C18.6142 7.73462 16.3949 10.2546 16.3949 12.3614C16.3949 10.2496 18.6192 7.73462 21.4349 7.73462C22.1704 7.73863 22.8961 7.90259 23.5618 8.2151V8.2151Z" fill="url(#paint5_linear_2_46)"/>
<path d="M13.0332 30.7661C18.3454 30.7661 19.9649 27.396 19.9649 25.511C19.9649 27.396 18.3454 30.7661 13.0332 30.7661Z" fill="url(#paint6_linear_2_46)"/>
<path d="M11.299 17.5662C11.4266 23.8276 16.3894 20.8153 16.3894 24.8726C16.3894 20.8153 11.4266 23.8276 11.299 17.5662Z" fill="url(#paint7_linear_2_46)"/>
<path d="M16.3894 12.3446C16.3912 11.8705 16.5812 11.4165 16.9177 11.0825C17.2542 10.7486 17.7096 10.562 18.1837 10.5637C18.6577 10.5655 19.1117 10.7556 19.4457 11.092C19.7796 11.4285 19.9663 11.8839 19.9645 12.358V13.5693C19.9645 18.3002 30.4763 16.0607 30.3335 20.0928C30.3721 19.7076 30.3912 19.3207 30.3907 18.9336C30.3887 16.7238 29.7677 14.5587 28.5981 12.6839C27.4284 10.809 25.7569 9.29933 23.7731 8.32596L23.595 8.22683L23.5698 8.21507C22.9042 7.90208 22.1784 7.73756 21.4429 7.73291C18.6289 7.73291 16.4028 10.2378 16.4028 12.3479" fill="url(#paint8_radial_2_46)"/>
<path d="M19.9648 13.5645C19.9648 18.124 29.7207 16.2139 30.3053 19.6764C30.3053 15.4982 24.3026 12.7026 21.4432 12.7026C20.5495 12.7026 19.9631 12.9765 19.9631 13.5645" fill="url(#paint9_linear_2_46)"/>
<path d="M37.8262 19.4696C37.8943 23.7566 36.3529 27.9134 33.5062 31.1195C30.6595 34.3256 26.7143 36.348 22.4494 36.7877C18.1845 37.2273 13.9097 36.0522 10.4688 33.4943C7.02793 30.9364 4.67093 27.1815 3.86304 22.9708C3.8748 23.1993 3.88992 23.4261 3.91176 23.6529C4.20241 26.6421 5.2339 29.5116 6.91289 32.0017C8.59187 34.4918 10.8653 36.5238 13.5275 37.914C16.1896 39.3041 19.1565 40.0085 22.1594 39.9632C25.1623 39.9179 28.1065 39.1245 30.7256 37.6547C33.3446 36.185 35.5558 34.0853 37.159 31.5457C38.7621 29.0061 39.7066 26.1068 39.9071 23.1103C40.1075 20.1137 39.5574 17.1144 38.3068 14.384C37.0561 11.6535 35.1442 9.2781 32.7442 7.47266C35.9575 10.6426 37.7848 14.9561 37.8262 19.4696" fill="url(#paint10_linear_2_46)"/>
<path d="M11.2988 29.0323C11.2988 29.4921 11.4815 29.9331 11.8066 30.2582C12.1318 30.5834 12.5728 30.766 13.0326 30.766H18.5548C21.1022 30.7697 23.5821 29.9474 25.6227 28.4224C28.3107 26.2686 23.7276 21.5831 17.5485 19.1907C18.7043 19.7586 19.6317 20.5348 19.8871 21.825C19.9356 22.0695 19.9592 22.3183 19.9576 22.5676V25.511C19.9576 25.985 19.7693 26.4397 19.4341 26.7749C19.0988 27.1102 18.6442 27.2985 18.1701 27.2985C17.696 27.2985 17.2413 27.1102 16.9061 26.7749C16.5709 26.4397 16.3826 25.985 16.3826 25.511V22.5676C16.3826 19.1571 11.2921 19.7115 11.2921 17.5662L11.2988 29.0323Z" fill="url(#paint11_linear_2_46)"/>
<path d="M11.299 29.0323C11.299 29.4921 11.4816 29.9331 11.8068 30.2582C12.1319 30.5834 12.5729 30.766 13.0327 30.766C18.3449 30.766 19.9645 27.3959 19.9645 25.511C19.9645 25.985 19.7761 26.4397 19.4409 26.7749C19.1057 27.1102 18.651 27.2985 18.1769 27.2985C17.7029 27.2985 17.2482 27.1102 16.913 26.7749C16.5777 26.4397 16.3894 25.985 16.3894 25.511V22.5676C16.3894 19.1571 11.299 19.7115 11.299 17.5662V29.0323Z" fill="url(#paint12_radial_2_46)"/>
<path d="M16.3895 24.8742V22.5676C16.3895 19.1891 11.3982 19.6964 11.3008 17.6266C11.4587 23.8074 16.3895 20.8288 16.3895 24.8742ZM11.3008 17.6266V17.5662C11.3008 17.5863 11.3008 17.6065 11.3008 17.6266Z" fill="url(#paint13_linear_2_46)"/>
<defs>
<linearGradient id="paint0_linear_2_46" x1="21.9048" y1="43.2066" x2="21.9048" y2="2.29483" gradientUnits="userSpaceOnUse">
<stop stop-color="white"/>
<stop offset="1" stop-color="#E6E7E8"/>
</linearGradient>
<linearGradient id="paint1_linear_2_46" x1="0.000840077" y1="21.9058" x2="43.8073" y2="21.9058" gradientUnits="userSpaceOnUse">
<stop stop-color="#60C5C1"/>
<stop offset="0.15" stop-color="#5FBEBF"/>
<stop offset="0.37" stop-color="#5DA9BA"/>
<stop offset="0.64" stop-color="#5A88B1"/>
<stop offset="0.95" stop-color="#5659A4"/>
<stop offset="1" stop-color="#5551A2"/>
</linearGradient>
<linearGradient id="paint2_linear_2_46" x1="2.55981" y1="21.9057" x2="41.2506" y2="21.9057" gradientUnits="userSpaceOnUse">
<stop stop-color="white"/>
<stop offset="1" stop-color="#E6E7E8"/>
</linearGradient>
<linearGradient id="paint3_linear_2_46" x1="3.85986" y1="21.9056" x2="39.95" y2="21.9056" gradientUnits="userSpaceOnUse">
<stop stop-color="#EC233B"/>
<stop offset="1" stop-color="#942B1F"/>
</linearGradient>
<linearGradient id="paint4_linear_2_46" x1="11.299" y1="18.9371" x2="30.3907" y2="18.9371" gradientUnits="userSpaceOnUse">
<stop stop-color="#60C5C1"/>
<stop offset="1" stop-color="#5551A2"/>
</linearGradient>
<linearGradient id="paint5_linear_2_46" x1="16.3322" y1="9.83514" x2="23.5772" y2="9.83514" gradientUnits="userSpaceOnUse">
<stop stop-color="#61BC5D"/>
<stop offset="0.49" stop-color="#61BC5D"/>
<stop offset="1" stop-color="#61BC5D"/>
</linearGradient>
<linearGradient id="paint6_linear_2_46" x1="13.0256" y1="28.0643" x2="20.0065" y2="28.0643" gradientUnits="userSpaceOnUse">
<stop stop-color="#61BC5D"/>
<stop offset="0.49" stop-color="#61BC5D"/>
<stop offset="1" stop-color="#61BC5D"/>
</linearGradient>
<linearGradient id="paint7_linear_2_46" x1="14.9569" y1="17.8508" x2="13.5525" y2="23.5907" gradientUnits="userSpaceOnUse">
<stop stop-color="#61BC5D"/>
<stop offset="0.49" stop-color="#61BC5D"/>
<stop offset="1" stop-color="#61BC5D"/>
</linearGradient>
<radialGradient id="paint8_radial_2_46" cx="0" cy="0" r="1" gradientUnits="userSpaceOnUse" gradientTransform="translate(24.0133 13.235) scale(7.94312 7.94311)">
<stop stop-color="#60C5C1"/>
<stop offset="0.15" stop-color="#5FBEBF"/>
<stop offset="0.37" stop-color="#5DA9BA"/>
<stop offset="0.64" stop-color="#5A88B1"/>
<stop offset="0.95" stop-color="#5659A4"/>
<stop offset="1" stop-color="#5551A2"/>
</radialGradient>
<linearGradient id="paint9_linear_2_46" x1="32.0492" y1="23.0667" x2="19.8388" y2="10.8563" gradientUnits="userSpaceOnUse">
<stop stop-color="#60C5C1"/>
<stop offset="0.15" stop-color="#5FBEBF"/>
<stop offset="0.37" stop-color="#5DA9BA"/>
<stop offset="0.64" stop-color="#5A88B1"/>
<stop offset="0.95" stop-color="#5659A4"/>
<stop offset="1" stop-color="#5551A2"/>
</linearGradient>
<linearGradient id="paint10_linear_2_46" x1="44.6841" y1="3.39862" x2="10.5377" y2="37.5466" gradientUnits="userSpaceOnUse">
<stop stop-color="#EC233B"/>
<stop offset="1" stop-color="#942B1F"/>
</linearGradient>
<linearGradient id="paint11_linear_2_46" x1="11.2988" y1="24.1653" x2="26.4173" y2="24.1653" gradientUnits="userSpaceOnUse">
<stop stop-color="#60C5C1"/>
<stop offset="1" stop-color="#5551A2"/>
</linearGradient>
<radialGradient id="paint12_radial_2_46" cx="0" cy="0" r="1" gradientUnits="userSpaceOnUse" gradientTransform="translate(14.9832 27.3657) scale(7.24927)">
<stop stop-color="#5551A2"/>
<stop offset="1" stop-color="#60C5C1"/>
</radialGradient>
<linearGradient id="paint13_linear_2_46" x1="17.0632" y1="24.2661" x2="11.1513" y2="17.6989" gradientUnits="userSpaceOnUse">
<stop stop-color="#60C5C1"/>
<stop offset="0.15" stop-color="#5FBEBF"/>
<stop offset="0.37" stop-color="#5DA9BA"/>
<stop offset="0.64" stop-color="#5A88B1"/>
<stop offset="0.95" stop-color="#5659A4"/>
<stop offset="1" stop-color="#5551A2"/>
</linearGradient>
</defs>
</svg>
